<svg width="62" height="14" viewBox="0 0 62 14" fill="none" xmlns="http://www.w3.org/2000/svg">
    <path
        d="M9.20579 4.25355C8.89258 1.99148 7.15252 0.678977 4.89542 0.678977C2.23562 0.678977 0.232067 2.6179 0.232067 5.90909C0.232067 9.19531 2.21076 11.1392 4.89542 11.1392C7.31658 11.1392 8.92241 9.57315 9.20579 7.62926L7.34641 7.61932C7.11275 8.8125 6.13832 9.48366 4.92028 9.48366C3.26971 9.48366 2.08647 8.24574 2.08647 5.90909C2.08647 3.61222 3.25977 2.33452 4.92525 2.33452C6.16317 2.33452 7.13264 3.03551 7.34641 4.25355H9.20579ZM13.0128 11.1541C14.2109 11.1541 14.9268 10.5923 15.255 9.95099H15.3146V11H17.0447V5.8892C17.0447 3.87074 15.3991 3.2642 13.9425 3.2642C12.3366 3.2642 11.1037 3.98011 10.706 5.37216L12.3864 5.6108C12.5653 5.08878 13.0724 4.64134 13.9524 4.64134C14.7876 4.64134 15.245 5.06889 15.245 5.8196V5.84943C15.245 6.36648 14.7031 6.39134 13.3558 6.53551C11.8743 6.6946 10.4574 7.13707 10.4574 8.85724C10.4574 10.3587 11.5561 11.1541 13.0128 11.1541ZM13.4801 9.83168C12.7294 9.83168 12.1925 9.48864 12.1925 8.82741C12.1925 8.13636 12.794 7.84801 13.5994 7.73366C14.0717 7.66903 15.0163 7.54972 15.25 7.3608V8.26065C15.25 9.1108 14.5639 9.83168 13.4801 9.83168ZM18.8544 13.8636H20.6541V9.79688H20.7287C21.0121 10.3537 21.6037 11.1342 22.9162 11.1342C24.7159 11.1342 26.0632 9.70739 26.0632 7.19176C26.0632 4.64631 24.6761 3.2642 22.9112 3.2642C21.5639 3.2642 21.0021 4.07457 20.7287 4.62642H20.6243V3.36364H18.8544V13.8636ZM20.6193 7.18182C20.6193 5.70028 21.2557 4.74077 22.4141 4.74077C23.6122 4.74077 24.2287 5.75994 24.2287 7.18182C24.2287 8.61364 23.6023 9.65767 22.4141 9.65767C21.2656 9.65767 20.6193 8.66335 20.6193 7.18182ZM33.6399 5.3821C33.3913 4.08949 32.3572 3.2642 30.5675 3.2642C28.728 3.2642 27.4751 4.16903 27.4801 5.58097C27.4751 6.6946 28.1612 7.4304 29.6278 7.73366L30.9304 8.0071C31.6314 8.16122 31.9595 8.4446 31.9595 8.87713C31.9595 9.39915 31.3928 9.7919 30.5376 9.7919C29.7124 9.7919 29.1754 9.43395 29.0213 8.74787L27.2663 8.9169C27.4901 10.3189 28.6683 11.1491 30.5426 11.1491C32.4517 11.1491 33.799 10.1598 33.804 8.71307C33.799 7.62429 33.098 6.9581 31.6562 6.64489L30.3537 6.36648C29.5781 6.19247 29.2699 5.92401 29.2749 5.48153C29.2699 4.96449 29.8416 4.60653 30.5923 4.60653C31.4226 4.60653 31.8601 5.05895 31.9993 5.56108L33.6399 5.3821ZM40.1552 7.78835C40.1552 8.9517 39.3249 9.52841 38.5295 9.52841C37.6644 9.52841 37.0877 8.9169 37.0877 7.94744V3.36364H35.288V8.22585C35.288 10.0604 36.332 11.0994 37.8335 11.0994C38.9769 11.0994 39.7823 10.4979 40.1303 9.64276H40.2099V11H41.9549V3.36364H40.1552V7.78835ZM45.6053 0.818182H43.8056V11H45.6053V0.818182ZM50.8366 11.1491C52.6165 11.1491 53.8395 10.2791 54.1577 8.9517L52.4773 8.76278C52.2337 9.40909 51.6371 9.74716 50.8615 9.74716C49.6982 9.74716 48.9276 8.98153 48.9126 7.67401H54.2322V7.12216C54.2322 4.44247 52.6214 3.2642 50.7422 3.2642C48.5547 3.2642 47.1278 4.87003 47.1278 7.22656C47.1278 9.62287 48.5348 11.1491 50.8366 11.1491ZM48.9176 6.46094C48.9723 5.48651 49.6932 4.66619 50.767 4.66619C51.8011 4.66619 52.4972 5.42188 52.5071 6.46094H48.9176ZM61.7903 5.3821C61.5417 4.08949 60.5076 3.2642 58.7179 3.2642C56.8784 3.2642 55.6255 4.16903 55.6305 5.58097C55.6255 6.6946 56.3116 7.4304 57.7782 7.73366L59.0808 8.0071C59.7818 8.16122 60.1099 8.4446 60.1099 8.87713C60.1099 9.39915 59.5431 9.7919 58.688 9.7919C57.8627 9.7919 57.3258 9.43395 57.1717 8.74787L55.4167 8.9169C55.6404 10.3189 56.8187 11.1491 58.693 11.1491C60.6021 11.1491 61.9494 10.1598 61.9544 8.71307C61.9494 7.62429 61.2484 6.9581 59.8066 6.64489L58.5041 6.36648C57.7285 6.19247 57.4203 5.92401 57.4252 5.48153C57.4203 4.96449 57.992 4.60653 58.7427 4.60653C59.573 4.60653 60.0105 5.05895 60.1497 5.56108L61.7903 5.3821Z"
        fill="white" />
</svg>