<svg width="36" height="12" viewBox="0 0 36 12" fill="none" xmlns="http://www.w3.org/2000/svg">
    <path
        d="M9.91184 4.25355C9.59863 1.99148 7.85858 0.678977 5.60147 0.678977C2.94167 0.678977 0.938121 2.6179 0.938121 5.90909C0.938121 9.19531 2.91681 11.1392 5.60147 11.1392C8.02264 11.1392 9.62846 9.57315 9.91184 7.62926L8.05247 7.61932C7.8188 8.8125 6.84437 9.48366 5.62633 9.48366C3.97576 9.48366 2.79252 8.24574 2.79252 5.90909C2.79252 3.61222 3.96582 2.33452 5.6313 2.33452C6.86923 2.33452 7.83869 3.03551 8.05247 4.25355H9.91184ZM11.5214 11H13.3211V6.51065C13.3211 5.54119 14.0519 4.85511 15.0413 4.85511C15.3445 4.85511 15.7224 4.9098 15.8765 4.95952V3.30398C15.7124 3.27415 15.4291 3.25426 15.2302 3.25426C14.3552 3.25426 13.6244 3.75142 13.346 4.63636H13.2664V3.36364H11.5214V11ZM20.1384 11.1491C21.9182 11.1491 23.1412 10.2791 23.4594 8.9517L21.779 8.76278C21.5354 9.40909 20.9388 9.74716 20.1633 9.74716C18.9999 9.74716 18.2293 8.98153 18.2144 7.67401H23.534V7.12216C23.534 4.44247 21.9232 3.2642 20.0439 3.2642C17.8564 3.2642 16.4296 4.87003 16.4296 7.22656C16.4296 9.62287 17.8366 11.1491 20.1384 11.1491ZM18.2194 6.46094C18.2741 5.48651 18.9949 4.66619 20.0688 4.66619C21.1029 4.66619 21.7989 5.42188 21.8089 6.46094H18.2194ZM26.5915 11H28.4708L29.9026 5.83949H30.007L31.4388 11H33.3131L35.4758 3.36364H33.6363L32.3138 8.70312H32.2393L30.8671 3.36364H29.0525L27.6803 8.73295H27.6107L26.2684 3.36364H24.4339L26.5915 11Z"
        fill="white" />
</svg>