<svg width="52" height="12" viewBox="0 0 52 12" fill="none" xmlns="http://www.w3.org/2000/svg">
    <path
        d="M6.63627 3.61719H8.41113C8.37633 1.89702 6.90971 0.678977 4.7421 0.678977C2.60431 0.678977 0.998491 1.8821 1.00346 3.68182C1.00346 5.14347 2.04252 5.98366 3.71795 6.41619L4.87633 6.71449C5.97505 6.9929 6.70091 7.33594 6.70588 8.12642C6.70091 8.99645 5.87562 9.57812 4.6725 9.57812C3.51909 9.57812 2.6242 9.06108 2.54963 7.99219H0.734996C0.80957 10.0156 2.31596 11.1541 4.68741 11.1541C7.12846 11.1541 8.54537 9.93608 8.55034 8.14134C8.54537 6.37642 7.08869 5.57102 5.55744 5.2081L4.60289 4.96946C3.76767 4.7706 2.86284 4.41761 2.87278 3.56747C2.87775 2.80185 3.56383 2.24006 4.71724 2.24006C5.81596 2.24006 6.54181 2.75213 6.63627 3.61719ZM13.9284 3.36364H12.422V1.53409H10.6222V3.36364H9.53844V4.75568H10.6222V9.00142C10.6123 10.4382 11.6563 11.1442 13.0086 11.1044C13.5207 11.0895 13.8737 10.9901 14.0676 10.9254L13.7643 9.51847C13.6649 9.54332 13.461 9.58807 13.2373 9.58807C12.7849 9.58807 12.422 9.42898 12.422 8.70312V4.75568H13.9284V3.36364ZM17.6309 11.1541C18.8291 11.1541 19.545 10.5923 19.8731 9.95099H19.9328V11H21.6629V5.8892C21.6629 3.87074 20.0173 3.2642 18.5606 3.2642C16.9548 3.2642 15.7219 3.98011 15.3241 5.37216L17.0045 5.6108C17.1835 5.08878 17.6906 4.64134 18.5706 4.64134C19.4058 4.64134 19.8632 5.06889 19.8632 5.8196V5.84943C19.8632 6.36648 19.3213 6.39134 17.974 6.53551C16.4925 6.6946 15.0756 7.13707 15.0756 8.85724C15.0756 10.3587 16.1743 11.1541 17.6309 11.1541ZM18.0983 9.83168C17.3476 9.83168 16.8106 9.48864 16.8106 8.82741C16.8106 8.13636 17.4122 7.84801 18.2176 7.73366C18.6899 7.66903 19.6345 7.54972 19.8682 7.3608V8.26065C19.8682 9.1108 19.1821 9.83168 18.0983 9.83168ZM23.4726 11H25.2723V6.51065C25.2723 5.54119 26.0031 4.85511 26.9925 4.85511C27.2957 4.85511 27.6736 4.9098 27.8277 4.95952V3.30398C27.6636 3.27415 27.3802 3.25426 27.1814 3.25426C26.3064 3.25426 25.5756 3.75142 25.2971 4.63636H25.2176V3.36364H23.4726V11ZM30.8231 0.818182H29.0233V11H30.8231V0.818182ZM32.6737 11H34.4735V3.36364H32.6737V11ZM33.5786 2.27983C34.1503 2.27983 34.6176 1.84233 34.6176 1.3054C34.6176 0.763494 34.1503 0.325994 33.5786 0.325994C33.0019 0.325994 32.5345 0.763494 32.5345 1.3054C32.5345 1.84233 33.0019 2.27983 33.5786 2.27983ZM38.1238 6.52557C38.1238 5.42188 38.79 4.78551 39.7396 4.78551C40.6693 4.78551 41.2261 5.39702 41.2261 6.41619V11H43.0258V6.13778C43.0308 4.30824 41.9868 3.2642 40.4108 3.2642C39.2673 3.2642 38.4818 3.81108 38.1338 4.66122H38.0443V3.36364H36.3241V11H38.1238V6.52557ZM44.8554 11H46.6551V8.43466L47.3113 7.73366L49.648 11H51.8007L48.6686 6.6598L51.6267 3.36364H49.5237L46.7794 6.43111H46.6551V0.818182H44.8554V11Z"
        fill="white" />
</svg>