<svg width="54" height="12" viewBox="0 0 54 12" fill="none" xmlns="http://www.w3.org/2000/svg">
    <path
        d="M0.283558 11H2.12802V7.27131H4.00728L6.00586 11H8.0641L5.86168 6.96307C7.05984 6.48082 7.69123 5.45668 7.69123 4.07457C7.69123 2.13068 6.43839 0.818182 4.10174 0.818182H0.283558V11ZM2.12802 5.74006V2.35938H3.81836C5.19549 2.35938 5.81197 2.99077 5.81197 4.07457C5.81197 5.15838 5.19549 5.74006 3.8283 5.74006H2.12802ZM12.5311 11.1491C14.7683 11.1491 16.1902 9.57315 16.1902 7.21165C16.1902 4.84517 14.7683 3.2642 12.5311 3.2642C10.2939 3.2642 8.87198 4.84517 8.87198 7.21165C8.87198 9.57315 10.2939 11.1491 12.5311 11.1491ZM12.541 9.70739C11.3031 9.70739 10.6966 8.60369 10.6966 7.20668C10.6966 5.80966 11.3031 4.69105 12.541 4.69105C13.7591 4.69105 14.3656 5.80966 14.3656 7.20668C14.3656 8.60369 13.7591 9.70739 12.541 9.70739ZM21.0487 11.1491C22.9677 11.1491 24.1907 10.0107 24.32 8.38991H22.5998C22.4457 9.21023 21.854 9.68253 21.0636 9.68253C19.94 9.68253 19.2141 8.7429 19.2141 7.18182C19.2141 5.64062 19.9549 4.71591 21.0636 4.71591C21.9286 4.71591 22.4606 5.27273 22.5998 6.00852H24.32C24.1957 4.35298 22.9031 3.2642 21.0387 3.2642C18.8015 3.2642 17.3896 4.87997 17.3896 7.21165C17.3896 9.52344 18.7667 11.1491 21.0487 11.1491ZM25.7978 11H27.5975V8.43466L28.2537 7.73366L30.5904 11H32.7431L29.611 6.6598L32.5691 3.36364H30.4661L27.7218 6.43111H27.5975V0.818182H25.7978V11ZM36.8347 11.1491C38.6145 11.1491 39.8375 10.2791 40.1557 8.9517L38.4753 8.76278C38.2317 9.40909 37.6351 9.74716 36.8596 9.74716C35.6962 9.74716 34.9256 8.98153 34.9107 7.67401H40.2303V7.12216C40.2303 4.44247 38.6195 3.2642 36.7402 3.2642C34.5527 3.2642 33.1259 4.87003 33.1259 7.22656C33.1259 9.62287 34.5328 11.1491 36.8347 11.1491ZM34.9157 6.46094C34.9703 5.48651 35.6912 4.66619 36.7651 4.66619C37.7992 4.66619 38.4952 5.42188 38.5051 6.46094H34.9157ZM45.5661 3.36364H44.0597V1.53409H42.2599V3.36364H41.1761V4.75568H42.2599V9.00142C42.25 10.4382 43.294 11.1442 44.6463 11.1044C45.1584 11.0895 45.5114 10.9901 45.7053 10.9254L45.402 9.51847C45.3026 9.54332 45.0987 9.58807 44.875 9.58807C44.4226 9.58807 44.0597 9.42898 44.0597 8.70312V4.75568H45.5661V3.36364ZM52.9973 5.3821C52.7488 4.08949 51.7147 3.2642 49.9249 3.2642C48.0854 3.2642 46.8326 4.16903 46.8375 5.58097C46.8326 6.6946 47.5186 7.4304 48.9853 7.73366L50.2878 8.0071C50.9888 8.16122 51.3169 8.4446 51.3169 8.87713C51.3169 9.39915 50.7502 9.7919 49.8951 9.7919C49.0698 9.7919 48.5328 9.43395 48.3787 8.74787L46.6238 8.9169C46.8475 10.3189 48.0257 11.1491 49.9 11.1491C51.8091 11.1491 53.1564 10.1598 53.1614 8.71307C53.1564 7.62429 52.4554 6.9581 51.0137 6.64489L49.7111 6.36648C48.9355 6.19247 48.6273 5.92401 48.6323 5.48153C48.6273 4.96449 49.199 4.60653 49.9498 4.60653C50.78 4.60653 51.2175 5.05895 51.3567 5.56108L52.9973 5.3821Z"
        fill="white" />
</svg>